# xmcd
#
# Track frame offsets:
# 150
# 18362
# 31762
# 45572
# 56835
# 70457
# 83047
# 94110
# 109585
# 123615
# 138227
# 149857
# 162810
# 173960
# 187030
# 198387
# 213942
# 226222
# 244335
# 258192
# 273655
# 286320
#
# Disc length: 3947 seconds
#
#
# Revision: 0
# Processed by: cddbd v1.5.2PL0 Copyright (c) Steve Scherf et al.
# Submitted via: FreeRIP 2.944 
#
DISCID=470f6916
DTITLE=TEODORO   and SAMPAIO - OS MAIORES SUCESSOS
DYEAR=1900
DGENRE=SERTANEJOAS
TTITLE0=PAIXÃO PROIBIDA
TTITLE1=VESTIDO DE SEDA
TTITLE2=CASACO VERDE
TTITLE3=PASSE LIVRE
TTITLE4=PINGA NI MIM
TTITLE5=CUNHADA
TTITLE6=O GAVIÃO
TTITLE7=CHEIRINHO DE MULHER
TTITLE8=A GOSTOSONA
TTITLE9=AGUA NO LEITE
TTITLE10=CANTARAM MINHA VIZINHA
TTITLE11=SE A CASA CAIR
TTITLE12=GARANHÃO DA MADRUGADA
TTITLE13=O MACHÃO CHOROU
TTITLE14=AMIGOS DE BAR
TTITLE15=QUANDO A SAUDADE APERTA
TTITLE16=VELHO GALLÃ
TTITLE17=DELICIAS DE AMOR
TTITLE18=A RABADADA CUNHADA
TTITLE19=A SOLTEIRONA
TTITLE20=VIRUS DA PAIXÃO
TTITLE21=QUEM TEM...   TEM   MEDO...
EXTD=
EXTT0=
EXTT1=
EXTT2=
EXTT3=
EXTT4=
EXTT5=
EXTT6=
EXTT7=
EXTT8=
EXTT9=
EXTT10=
EXTT11=
EXTT12=
EXTT13=
EXTT14=
EXTT15=
EXTT16=
EXTT17=
EXTT18=
EXTT19=
EXTT20=
EXTT21=
PLAYORDER=
